<svg width="128" height="128" viewBox="0 0 128 128" fill="none" xmlns="http://www.w3.org/2000/svg">
<path d="M23.36 98.62C34.7067 94.3033 44.3883 88.815 52.405 82.155C59.6817 75.9883 64.8617 70.5617 67.945 65.875C71.0283 61.065 72.57 55.33 72.57 48.67C72.57 44.3533 71.3367 40.715 68.87 37.755C66.4033 34.6717 63.4433 33.13 59.99 33.13C56.1667 33.13 53.2067 34.3633 51.11 36.83C49.0133 39.1733 47.965 42.195 47.965 45.895C47.965 47.9917 48.52 50.15 49.63 52.37C50.74 54.4667 52.035 56.255 53.515 57.735L33.165 73.46C28.9717 69.76 25.58 64.8883 22.99 58.845C20.5233 52.6783 19.4133 46.635 19.66 40.715C19.5367 33.1917 21.5717 26.5317 25.765 20.735C30.0817 14.815 36.0633 10.19 43.71 6.85999C51.48 3.53 60.2983 1.865 70.165 1.865C79.5383 1.865 87.8633 3.59167 95.14 7.045C102.54 10.4983 108.275 15.37 112.345 21.66C116.538 27.8267 118.635 34.8567 118.635 42.75C118.635 50.15 116.477 57.18 112.16 63.84C107.967 70.5 103.218 76.1117 97.915 80.675C92.735 85.2383 86.7533 89.9867 79.97 94.92L76.455 97.325H91.07C96.99 97.2017 101.677 96.2767 105.13 94.55C108.707 92.8233 110.495 89.3083 110.495 84.005H126.035L126.59 126H23.36V98.62Z" fill="black"/>
<path d="M19.36 98.62C30.7067 94.3033 40.3883 88.815 48.405 82.155C55.6817 75.9883 60.8617 70.5617 63.945 65.875C67.0283 61.065 68.57 55.33 68.57 48.67C68.57 44.3533 67.3367 40.715 64.87 37.755C62.4033 34.6717 59.4433 33.13 55.99 33.13C52.1667 33.13 49.2067 34.3633 47.11 36.83C45.0133 39.1733 43.965 42.195 43.965 45.895C43.965 47.9917 44.52 50.15 45.63 52.37C46.74 54.4667 48.035 56.255 49.515 57.735L29.165 73.46C24.9717 69.76 21.58 64.8883 18.99 58.845C16.5233 52.6783 15.4133 46.635 15.66 40.715C15.5367 33.1917 17.5717 26.5317 21.765 20.735C26.0817 14.815 32.0633 10.19 39.71 6.85999C47.48 3.53 56.2983 1.865 66.165 1.865C75.5383 1.865 83.8633 3.59167 91.14 7.045C98.54 10.4983 104.275 15.37 108.345 21.66C112.538 27.8267 114.635 34.8567 114.635 42.75C114.635 50.15 112.477 57.18 108.16 63.84C103.967 70.5 99.2183 76.1117 93.915 80.675C88.735 85.2383 82.7533 89.9867 75.97 94.92L72.455 97.325H87.07C92.99 97.2017 97.6767 96.2767 101.13 94.55C104.707 92.8233 106.495 89.3083 106.495 84.005H122.035L122.59 126H19.36V98.62Z" fill="#B7A261"/>
</svg>
