<svg width="128" height="128" viewBox="0 0 128 128" fill="none" xmlns="http://www.w3.org/2000/svg">
<path d="M64.8 126.665C54.9333 126.665 46.6083 126.11 39.825 125C33.0417 123.89 27.06 121.547 21.88 117.97V86.705C32.8567 95.4617 44.0183 99.84 55.365 99.84C60.6683 99.84 65.2933 98.7917 69.24 96.695C73.31 94.475 75.345 91.0833 75.345 86.52C75.345 81.2167 73.125 77.3933 68.685 75.05C64.3683 72.7067 59.1883 71.535 53.145 71.535C51.0483 71.535 48.7667 71.8433 46.3 72.46C43.8333 72.9533 42.2917 73.2617 41.675 73.385H39.825V58.215L70.72 31.945V31.02H50.74C47.78 31.02 45.56 31.5133 44.08 32.5C42.6 33.3633 41.49 34.6583 40.75 36.385C40.01 37.9883 39.2083 40.5167 38.345 43.97L20.77 43.785V2.9H117.34V26.765L91.81 48.04C97.6067 48.5333 102.91 50.445 107.72 53.775C112.53 57.105 116.353 61.2983 119.19 66.355C122.027 71.4117 123.445 76.715 123.445 82.265C123.445 97.065 118.018 108.165 107.165 115.565C96.3117 122.965 82.19 126.665 64.8 126.665Z" fill="black"/>
<path d="M60.8 126.665C50.9333 126.665 42.6083 126.11 35.825 125C29.0417 123.89 23.06 121.547 17.88 117.97V86.705C28.8567 95.4617 40.0183 99.84 51.365 99.84C56.6683 99.84 61.2933 98.7917 65.24 96.695C69.31 94.475 71.345 91.0833 71.345 86.52C71.345 81.2167 69.125 77.3933 64.685 75.05C60.3683 72.7067 55.1883 71.535 49.145 71.535C47.0483 71.535 44.7667 71.8433 42.3 72.46C39.8333 72.9533 38.2917 73.2617 37.675 73.385H35.825V58.215L66.72 31.945V31.02H46.74C43.78 31.02 41.56 31.5133 40.08 32.5C38.6 33.3633 37.49 34.6583 36.75 36.385C36.01 37.9883 35.2083 40.5167 34.345 43.97L16.77 43.785V2.9H113.34V26.765L87.81 48.04C93.6067 48.5333 98.91 50.445 103.72 53.775C108.53 57.105 112.353 61.2983 115.19 66.355C118.027 71.4117 119.445 76.715 119.445 82.265C119.445 97.065 114.018 108.165 103.165 115.565C92.3117 122.965 78.19 126.665 60.8 126.665Z" fill="#B7A261"/>
</svg>
