<svg width="128" height="128" viewBox="0 0 128 128" fill="none" xmlns="http://www.w3.org/2000/svg">
<path d="M69.44 126.85C63.3967 126.85 57.1067 126.172 50.57 124.815C44.0333 123.335 39.285 121.177 36.325 118.34L36.51 118.155V93.735C43.4167 97.6817 50.0767 99.655 56.49 99.655C61.5467 99.655 66.11 98.4217 70.18 95.955C74.25 93.365 76.285 89.665 76.285 84.855C76.285 80.045 74.3117 76.2833 70.365 73.57C66.4183 70.7333 61.67 69.315 56.12 69.315C49.46 69.315 43.2317 71.2267 37.435 75.05L36.325 74.125V2.34499H119.02V29.17H63.89V41.75C69.81 40.7633 76.1617 40.27 82.945 40.27C90.715 40.27 97.8683 41.935 104.405 45.265C110.942 48.4717 116.122 53.035 119.945 58.955C123.892 64.7517 125.865 71.35 125.865 78.75C125.865 88.8633 123.522 97.5583 118.835 104.835C114.148 112.112 107.55 117.6 99.04 121.3C90.53 125 80.6633 126.85 69.44 126.85Z" fill="black"/>
<path d="M65.44 126.85C59.3967 126.85 53.1067 126.172 46.57 124.815C40.0333 123.335 35.285 121.177 32.325 118.34L32.51 118.155V93.735C39.4167 97.6817 46.0767 99.655 52.49 99.655C57.5467 99.655 62.11 98.4217 66.18 95.955C70.25 93.365 72.285 89.665 72.285 84.855C72.285 80.045 70.3117 76.2833 66.365 73.57C62.4183 70.7333 57.67 69.315 52.12 69.315C45.46 69.315 39.2317 71.2267 33.435 75.05L32.325 74.125V2.34499H115.02V29.17H59.89V41.75C65.81 40.7633 72.1617 40.27 78.945 40.27C86.715 40.27 93.8683 41.935 100.405 45.265C106.942 48.4717 112.122 53.035 115.945 58.955C119.892 64.7517 121.865 71.35 121.865 78.75C121.865 88.8633 119.522 97.5583 114.835 104.835C110.148 112.112 103.55 117.6 95.04 121.3C86.53 125 76.6633 126.85 65.44 126.85Z" fill="#B7A261"/>
</svg>
