<svg width="184" height="27" viewBox="0 0 184 27" fill="none" xmlns="http://www.w3.org/2000/svg">
<path d="M2.11133 24.7344C1.70117 24.5 1.34375 24.2539 1.03906 23.9961C0.746094 23.7383 0.599609 23.4629 0.599609 23.1699C0.599609 22.6074 0.839844 22.3262 1.32031 22.3262C1.63672 22.3262 1.98828 22.502 2.375 22.8535C2.76172 23.2051 3.19531 23.5156 3.67578 23.7852C4.15625 24.043 4.67773 24.2656 5.24023 24.4531C6.40039 24.8398 7.47266 25.0332 8.45703 25.0332C9.44141 25.0332 10.1973 24.9688 10.7246 24.8398C11.2637 24.7109 11.7148 24.5352 12.0781 24.3125C12.8516 23.832 13.2383 23.2168 13.2383 22.4668C13.2383 21.7754 12.9043 21.0781 12.2363 20.375C11.6738 19.7773 10.877 19.0625 9.8457 18.2305L6.83984 15.875C3.82812 13.5547 2.05273 11.4336 1.51367 9.51172C1.32617 8.84375 1.23242 8.09961 1.23242 7.2793C1.23242 6.45898 1.41406 5.65039 1.77734 4.85352C2.15234 4.05664 2.70312 3.35938 3.42969 2.76172C4.98828 1.46094 7.10938 0.810547 9.79297 0.810547C11.1641 0.810547 12.3945 1.01563 13.4844 1.42578C14.5742 1.82422 15.3184 2.18164 15.7168 2.49805C16.1152 2.81445 16.3145 3.10156 16.3145 3.35938C16.3145 3.89844 16.0918 4.16797 15.6465 4.16797C15.3887 4.16797 15.1133 4.03906 14.8203 3.78125C14.5273 3.52344 14.1992 3.30078 13.8359 3.11328C13.4844 2.91406 13.0801 2.73828 12.623 2.58594C11.6387 2.25781 10.6719 2.09375 9.72266 2.09375C7.97656 2.09375 7.10352 2.66797 7.10352 3.81641C7.10352 4.29687 7.26172 4.74219 7.57812 5.15234C8.14062 5.86719 9.23633 6.89258 10.8652 8.22852C12.5059 9.55273 13.8184 10.7129 14.8027 11.709C15.7988 12.7051 16.5547 13.6016 17.0703 14.3984C17.8906 15.6523 18.3008 16.959 18.3008 18.3184C18.3008 19.666 18.0605 20.8145 17.5801 21.7637C17.1113 22.7012 16.4492 23.5098 15.5938 24.1895C13.7891 25.6191 11.5508 26.334 8.87891 26.334C6.20703 26.334 3.95117 25.8008 2.11133 24.7344ZM42.207 23.4512L42.2598 25.2441C42.2598 25.5488 42.1719 25.7832 41.9961 25.9473C41.8203 26.1113 41.6152 26.1934 41.3809 26.1934C41.1582 26.1934 40.9766 26.1172 40.8359 25.9648C40.707 25.8125 40.6426 25.6191 40.6426 25.3848C40.6426 25.1504 40.6719 24.8867 40.7305 24.5938C40.8125 24.2305 40.8535 23.3223 40.8535 21.8691V9.03711H32.0117V26H23.0293V1.12695H32.0117V7.75391C34.543 7.75391 36.5586 7.75391 38.0586 7.75391C39.5703 7.75391 40.502 7.74805 40.8535 7.73633V4.67773C40.8535 3.6582 40.8359 2.99609 40.8008 2.69141L40.7305 2.16406C40.7188 2 40.7129 1.85938 40.7129 1.74219C40.7129 1.20312 40.959 0.933594 41.4512 0.933594C41.627 0.933594 41.8086 1.00391 41.9961 1.14453C42.1836 1.28516 42.2773 1.51953 42.2773 1.84766L42.207 4.09766V7.66602L43.3145 7.50781C43.5254 7.50781 43.7012 7.57227 43.8418 7.70117C43.9824 7.81836 44.0527 7.97656 44.0527 8.17578C44.0527 8.63281 43.6895 8.89062 42.9629 8.94922C42.834 8.97266 42.7051 8.99023 42.5762 9.00195C42.459 9.00195 42.3359 9.00781 42.207 9.01953V23.4512ZM51.3301 22.8359C50.1699 21.6992 49.2441 20.3281 48.5527 18.7227C47.873 17.1055 47.5332 15.3477 47.5332 13.4492C47.5332 11.5391 47.8555 9.82812 48.5 8.31641C49.1562 6.79297 50.0586 5.47461 51.207 4.36133C53.668 1.99414 56.7559 0.810547 60.4707 0.810547C64.1621 0.810547 67.1855 1.97656 69.541 4.30859C71.9316 6.67578 73.127 9.74609 73.127 13.5195C73.127 17.2812 71.9023 20.375 69.4531 22.8008C67.918 24.3008 66.0312 25.3379 63.793 25.9121C62.6797 26.1934 61.3848 26.334 59.9082 26.334C58.4434 26.334 56.9375 26.0352 55.3906 25.4375C53.8438 24.8281 52.4902 23.9609 51.3301 22.8359ZM60.4531 2.09375C59.8086 2.09375 59.2051 2.14063 58.6426 2.23438V24.9102C59.1816 25.0039 59.7852 25.0508 60.4531 25.0508C63.582 25.0508 66.2188 24.0078 68.3633 21.9219C70.6016 19.7539 71.7207 16.9531 71.7207 13.5195C71.7207 10.25 70.6719 7.53125 68.5742 5.36328C66.4531 3.18359 63.7461 2.09375 60.4531 2.09375ZM89.791 18.7051L91.3555 18.7754C93.6289 18.7754 95.5039 18.0254 96.9805 16.5254C98.4805 15.0137 99.2656 13.0566 99.3359 10.6543C99.4648 6.95117 97.6836 4.44922 93.9922 3.14844C92.6094 2.65625 90.8105 2.41016 88.5957 2.41016H87.1191V26H78.1543V1.12695H84.8867C88.5195 1.12695 90.7109 1.17969 91.4609 1.28516C92.2109 1.39062 92.9902 1.52539 93.7988 1.68945C94.6191 1.85352 95.498 2.21094 96.4355 2.76172C97.3848 3.3125 98.1875 3.96875 98.8438 4.73047C100.168 6.27734 100.807 8.09375 100.76 10.1797C100.689 12.8398 99.9102 15.0547 98.4219 16.8242C96.9102 18.6055 94.8242 19.707 92.1641 20.1289C91.3906 20.2344 90.7812 20.2871 90.3359 20.2871C89.2812 20.2871 88.7539 20 88.7539 19.4258C88.7539 19.2148 88.8477 19.0449 89.0352 18.916C89.2227 18.7754 89.4746 18.7051 89.791 18.7051ZM116.475 18.7051L118.039 18.7754C120.312 18.7754 122.188 18.0254 123.664 16.5254C125.164 15.0137 125.949 13.0566 126.02 10.6543C126.148 6.95117 124.367 4.44922 120.676 3.14844C119.293 2.65625 117.494 2.41016 115.279 2.41016H113.803V26H104.838V1.12695H111.57C115.203 1.12695 117.395 1.17969 118.145 1.28516C118.895 1.39062 119.674 1.52539 120.482 1.68945C121.303 1.85352 122.182 2.21094 123.119 2.76172C124.068 3.3125 124.871 3.96875 125.527 4.73047C126.852 6.27734 127.49 8.09375 127.443 10.1797C127.373 12.8398 126.594 15.0547 125.105 16.8242C123.594 18.6055 121.508 19.707 118.848 20.1289C118.074 20.2344 117.465 20.2871 117.02 20.2871C115.965 20.2871 115.438 20 115.438 19.4258C115.438 19.2148 115.531 19.0449 115.719 18.916C115.906 18.7754 116.158 18.7051 116.475 18.7051ZM131.223 1.12695H140.188V26H131.223V1.12695ZM161.527 24.4883C162.125 24.4883 162.424 24.7227 162.424 25.1914C162.424 25.4023 162.295 25.5898 162.037 25.7539C161.779 25.918 161.334 26 160.701 26H145.812V1.12695C150.43 1.12695 155.047 1.12695 159.664 1.12695L161.105 1.07422C161.984 1.07422 162.424 1.33203 162.424 1.84766C162.424 2.04687 162.348 2.23438 162.195 2.41016C162.055 2.57422 161.891 2.65625 161.703 2.65625C161.398 2.65625 161.076 2.62109 160.736 2.55078C160.232 2.44531 159.541 2.39258 158.662 2.39258H154.777V7.75391H157.977C157.977 7.75391 158.697 7.72461 160.139 7.66602C160.396 7.66602 160.613 7.73047 160.789 7.85938C160.977 7.97656 161.07 8.14648 161.07 8.36914C161.07 8.86133 160.742 9.10742 160.086 9.10742L159.33 9.08984C158.943 9.05469 158.621 9.03711 158.363 9.03711H154.777V24.7168H158.662C159.529 24.7168 160.145 24.6816 160.508 24.6113C160.941 24.5293 161.281 24.4883 161.527 24.4883ZM167.135 24.7344C166.725 24.5 166.367 24.2539 166.062 23.9961C165.77 23.7383 165.623 23.4629 165.623 23.1699C165.623 22.6074 165.863 22.3262 166.344 22.3262C166.66 22.3262 167.012 22.502 167.398 22.8535C167.785 23.2051 168.219 23.5156 168.699 23.7852C169.18 24.043 169.701 24.2656 170.264 24.4531C171.424 24.8398 172.496 25.0332 173.48 25.0332C174.465 25.0332 175.221 24.9688 175.748 24.8398C176.287 24.7109 176.738 24.5352 177.102 24.3125C177.875 23.832 178.262 23.2168 178.262 22.4668C178.262 21.7754 177.928 21.0781 177.26 20.375C176.697 19.7773 175.9 19.0625 174.869 18.2305L171.863 15.875C168.852 13.5547 167.076 11.4336 166.537 9.51172C166.35 8.84375 166.256 8.09961 166.256 7.2793C166.256 6.45898 166.438 5.65039 166.801 4.85352C167.176 4.05664 167.727 3.35938 168.453 2.76172C170.012 1.46094 172.133 0.810547 174.816 0.810547C176.188 0.810547 177.418 1.01563 178.508 1.42578C179.598 1.82422 180.342 2.18164 180.74 2.49805C181.139 2.81445 181.338 3.10156 181.338 3.35938C181.338 3.89844 181.115 4.16797 180.67 4.16797C180.412 4.16797 180.137 4.03906 179.844 3.78125C179.551 3.52344 179.223 3.30078 178.859 3.11328C178.508 2.91406 178.104 2.73828 177.646 2.58594C176.662 2.25781 175.695 2.09375 174.746 2.09375C173 2.09375 172.127 2.66797 172.127 3.81641C172.127 4.29687 172.285 4.74219 172.602 5.15234C173.164 5.86719 174.26 6.89258 175.889 8.22852C177.529 9.55273 178.842 10.7129 179.826 11.709C180.822 12.7051 181.578 13.6016 182.094 14.3984C182.914 15.6523 183.324 16.959 183.324 18.3184C183.324 19.666 183.084 20.8145 182.604 21.7637C182.135 22.7012 181.473 23.5098 180.617 24.1895C178.812 25.6191 176.574 26.334 173.902 26.334C171.23 26.334 168.975 25.8008 167.135 24.7344Z" fill="#B7A261"/>
</svg>
