<svg width="40" height="40" viewBox="0 0 40 40" fill="none" xmlns="http://www.w3.org/2000/svg">
<g clip-path="url(#clip0)">
<path opacity="0.1" d="M21.7065 3.81081C21.7089 4.33258 21.5662 4.84474 21.2942 5.29003L21.6719 6.40263C25.5451 7.46085 23.4819 11.0307 23.3185 12.47C23.3187 12.6478 23.2782 12.8233 23.2001 12.983C23.1221 13.1427 23.0085 13.2825 22.8681 13.3915C22.7277 13.5005 22.5641 13.576 22.3901 13.6121C22.216 13.6481 22.036 13.6439 21.8638 13.5996C23.1106 17.2151 21.4698 21.5105 21.4698 21.5105C21.5736 22.9851 20.9159 26.6413 20.7193 27.6885L22.0138 27.7065C22.2105 26.6594 22.872 22.9974 22.7644 21.5285C22.7644 21.5285 24.4052 17.2332 23.1583 13.6177C23.1583 13.6177 24.4507 13.9232 24.6142 12.4839C24.7776 11.0446 26.8396 7.47891 22.9691 6.41913L22.5872 5.30541C22.8605 4.86158 23.0038 4.35005 23.001 3.82887C23.0264 2.63379 22.3943 1.67525 21.5935 1.65115C21.3579 1.65207 21.1291 1.73016 20.942 1.87345C21.2048 2.11975 21.4097 2.42126 21.5419 2.75627C21.674 3.09129 21.7303 3.45145 21.7065 3.81081V3.81081Z" fill="black"/>
<path d="M24.3485 35.0718L24.443 28.0672L21.04 28.0217C21.2352 26.9718 21.8982 23.3125 21.7906 21.8437C21.7906 21.8437 23.4314 17.5483 22.1846 13.9328C22.1846 13.9328 23.4769 14.2383 23.6404 12.799C23.8038 11.3597 25.8658 7.79407 21.9953 6.73429L21.6135 5.62055C21.8879 5.17656 22.0322 4.66444 22.0299 4.14247C22.0538 2.94471 21.4205 1.9904 20.6197 1.9663C19.8188 1.9422 19.1665 2.91261 19.1507 4.10572C19.1305 4.67928 19.2917 5.2446 19.6113 5.7213L19.4014 6.98714C19.4014 6.98714 15.3837 5.92648 17.0192 12.7121C17.0192 12.7121 17.4371 13.8695 18.1579 13.8789C18.1579 13.8789 17.6538 19.0526 18.3449 20.9249C18.3449 20.9249 17.9965 25.5258 18.5508 26.5292L18.5319 27.971L14.9291 27.9263L14.8364 35.0516C12.988 35.4498 11.8036 36.0871 11.7914 36.8096C11.7748 38.0818 15.3676 39.1624 19.8192 39.2214C24.2708 39.2803 27.8883 38.2971 27.9064 37.0275C27.9325 36.2363 26.5095 35.5125 24.3485 35.0718Z" fill="#B7A261"/>
</g>
<defs>
<clipPath id="clip0">
<rect width="40" height="40" fill="white"/>
</clipPath>
</defs>
</svg>
